<svg xmlns="http://www.w3.org/2000/svg" viewBox="0 0 163.38 35.97"><path class="sec" d="M6.85 31.14h-.53v2.48h-1v-5.81h1v2.46h.47l1.58-2.46h1.14l-1.94 2.77 2.08 3H8.46ZM14.65 27.81v5.81h-1v-5h-1.48l-.09 2a6 6 0 0 1-.44 2.33 1.26 1.26 0 0 1-1.17.69h-.32v-.87h.24a.69.69 0 0 0 .57-.53 8.26 8.26 0 0 0 .21-1.89l.09-2.49ZM19.15 33.62A2.58 2.58 0 0 1 19 33a1.53 1.53 0 0 1-1.29.74A1.53 1.53 0 0 1 16.07 32a1.78 1.78 0 0 1 .6-1.41 2.42 2.42 0 0 1 1.65-.53H19v-.62a1 1 0 0 0-.23-.74 1 1 0 0 0-.7-.22 1 1 0 0 0-.7.25.86.86 0 0 0-.27.65h-.95a1.5 1.5 0 0 1 .27-.85 1.88 1.88 0 0 1 .7-.64 2.2 2.2 0 0 1 1-.23 1.87 1.87 0 0 1 1.35.45 1.73 1.73 0 0 1 .53 1.33v2.93a3.43 3.43 0 0 0 .18 1.17v.08Zm-1.26-.76a1.23 1.23 0 0 0 .66-.19 1.17 1.17 0 0 0 .46-.48V30.8h-.53a1.86 1.86 0 0 0-1.07.3 1 1 0 0 0-.39.82 1 1 0 0 0 .2.72.84.84 0 0 0 .67.22ZM21.52 33.62v-5.81h1.95a2.46 2.46 0 0 1 1.52.41 1.41 1.41 0 0 1 .53 1.18 1.28 1.28 0 0 1-.82 1.22 1.3 1.3 0 0 1 .71.48 1.35 1.35 0 0 1 .28.87 1.5 1.5 0 0 1-.51 1.23 2.13 2.13 0 0 1-1.42.42Zm.94-3.34h1c.74 0 1.11-.28 1.11-.82s-.35-.83-1.05-.84h-1.06Zm0 .79v1.75h1.31c.64 0 1-.29 1-.88s-.32-.87-1-.87ZM30.11 27.81h.95v5.81h-.95v-4.24L28 33.62h-1v-5.81h1v4.24ZM35.56 33.62a2.17 2.17 0 0 1-.12-.63 1.53 1.53 0 0 1-1.29.74 1.67 1.67 0 0 1-1.23-.44 1.69 1.69 0 0 1-.45-1.29 1.79 1.79 0 0 1 .61-1.41 2.42 2.42 0 0 1 1.65-.53h.69v-.62a1 1 0 0 0-1.63-.71.86.86 0 0 0-.27.65h-1a1.57 1.57 0 0 1 .26-.85 2 2 0 0 1 .71-.64 2.2 2.2 0 0 1 1-.23 1.87 1.87 0 0 1 1.35.45 1.73 1.73 0 0 1 .48 1.29v2.93a3.43 3.43 0 0 0 .18 1.17v.08Zm-1.26-.76a1.23 1.23 0 0 0 .66-.19 1.17 1.17 0 0 0 .46-.48V30.8h-.53a1.86 1.86 0 0 0-1.07.3 1 1 0 0 0-.39.82 1.09 1.09 0 0 0 .19.72.88.88 0 0 0 .68.22ZM41.43 28.62h-1.59v5h-.94v-5h-1.56v-.81h4.09ZM44.08 32l1.05-4.23h1l-1.9 6.63a2.56 2.56 0 0 1-.6 1.14 1.25 1.25 0 0 1-.9.39 1.83 1.83 0 0 1-.49-.09v-.8h.21a1 1 0 0 0 .65-.2 1.48 1.48 0 0 0 .38-.68l.18-.65-1.66-5.7h1ZM51.27 31a3.47 3.47 0 0 1-.5 2.06 1.64 1.64 0 0 1-1.4.68 1.55 1.55 0 0 1-1.37-.67v2.79h-1v-8h.86v.64a1.54 1.54 0 0 1 1.37-.75 1.63 1.63 0 0 1 1.43.67 3.55 3.55 0 0 1 .49 2Zm-1-.54A2.71 2.71 0 0 0 50 29a1.06 1.06 0 0 0-1-.47 1.11 1.11 0 0 0-1 .69v3a1.11 1.11 0 0 0 1 .67 1 1 0 0 0 .94-.47 2.56 2.56 0 0 0 .38-1.42ZM53.52 29.81h1.2a1.84 1.84 0 0 1 1.33.51 2.19 2.19 0 0 1 0 2.77 1.73 1.73 0 0 1-1.32.53h-2.15v-5.81h.94Zm0 .81v2.19h1.19a.84.84 0 0 0 .65-.28 1.26 1.26 0 0 0 .23-.79 1.31 1.31 0 0 0-.23-.8.76.76 0 0 0-.63-.32Zm4.79 3h-1v-5.81h1ZM62.48 32.81l.28-.41a4.17 4.17 0 0 0 .53-2.09l.08-2.5h3.25v5h.68v2.52h-1v-1.71H63v1.71h-.95v-2.52Zm1.06 0h2.13v-4.08H64.3v1.42a5.26 5.26 0 0 1-.76 2.66ZM72.48 27.81v5.81h-1v-5H70l-.09 2a6 6 0 0 1-.44 2.33 1.26 1.26 0 0 1-1.17.69H68v-.87h.24a.69.69 0 0 0 .57-.53A7.71 7.71 0 0 0 69 30.3l.09-2.49ZM77.79 27.81v5.81h-1v-2.26h-1.07l-1.17 2.26h-1l1.25-2.43a1.47 1.47 0 0 1-.72-.63 2 2 0 0 1-.24-1 1.68 1.68 0 0 1 .51-1.28 1.94 1.94 0 0 1 1.39-.49Zm-3 1.78a1 1 0 0 0 .23.69.76.76 0 0 0 .62.26h1.22v-1.92h-1.15a.92.92 0 0 0-.69.27 1 1 0 0 0-.25.7ZM85.91 33.62H85v-5h-2.1v5h-1v-5.81h4ZM91.62 31a3.4 3.4 0 0 1-.5 2.06 1.63 1.63 0 0 1-1.4.68 1.57 1.57 0 0 1-1.35-.66v2.79h-.94v-8h.86v.64a1.54 1.54 0 0 1 1.37-.75 1.62 1.62 0 0 1 1.43.67 3.47 3.47 0 0 1 .49 2Zm-.94-.54a2.71 2.71 0 0 0-.3-1.44 1.09 1.09 0 0 0-1-.47 1.12 1.12 0 0 0-1 .69v3a1.11 1.11 0 0 0 1 .67 1.06 1.06 0 0 0 1-.47 2.74 2.74 0 0 0 .3-1.44ZM92.65 30.45a3 3 0 0 1 .61-2 2.17 2.17 0 0 1 3.25 0 3 3 0 0 1 .63 2V31a3 3 0 0 1-.61 2 2.17 2.17 0 0 1-3.25 0 2.91 2.91 0 0 1-.63-1.93Zm.95.54a2.41 2.41 0 0 0 .4 1.41 1.08 1.08 0 0 0 1 .52c.84 0 1.27-.61 1.29-1.82v-.65a2.49 2.49 0 0 0-.45-1.45 1.1 1.1 0 0 0-1-.52A1.07 1.07 0 0 0 94 29a2.4 2.4 0 0 0-.35 1.4ZM98.2 30.82a4.58 4.58 0 0 1 .47-2.28 1.44 1.44 0 0 1 1.3-.84 1.61 1.61 0 0 1 .63.12v-2.45h1v2.48a1.54 1.54 0 0 1 .7-.15 1.44 1.44 0 0 1 1.31.84 4.86 4.86 0 0 1 .47 2.4 3.77 3.77 0 0 1-.47 2.05 1.45 1.45 0 0 1-1.3.74 1.58 1.58 0 0 1-.71-.14v2.27h-1v-2.24a1.67 1.67 0 0 1-.63.11 1.46 1.46 0 0 1-1.3-.75 4 4 0 0 1-.47-2.16Zm1 .12a3.2 3.2 0 0 0 .27 1.48.84.84 0 0 0 .79.5 1.14 1.14 0 0 0 .39-.06v-4.28a1.29 1.29 0 0 0-.37-.06.86.86 0 0 0-.81.58 4.65 4.65 0 0 0-.32 1.84Zm3.94-.12a3.92 3.92 0 0 0-.3-1.7.9.9 0 0 0-.83-.6.91.91 0 0 0-.41.08v4.26a1.25 1.25 0 0 0 .42.06.92.92 0 0 0 .83-.51 3.41 3.41 0 0 0 .24-1.59ZM107.36 33.73a2.11 2.11 0 0 1-1.66-.65 2.79 2.79 0 0 1-.59-1.9v-.7a3.32 3.32 0 0 1 .56-2 1.9 1.9 0 0 1 1.59-.74 1.8 1.8 0 0 1 1.52.65 3.36 3.36 0 0 1 .52 2V31h-3.25v.13a2.07 2.07 0 0 0 .36 1.36 1.21 1.21 0 0 0 1 .43 1.75 1.75 0 0 0 .74-.16 1.81 1.81 0 0 0 .59-.5l.5.6a2.16 2.16 0 0 1-1.88.87Zm-.1-5.21a1 1 0 0 0-.88.4 2.36 2.36 0 0 0-.32 1.26h2.29v-.13a2.31 2.31 0 0 0-.3-1.18.93.93 0 0 0-.79-.35ZM112.46 32.92a1 1 0 0 0 .75-.3 1.18 1.18 0 0 0 .31-.83h.9a2 2 0 0 1-.59 1.39 1.92 1.92 0 0 1-1.37.55 2 2 0 0 1-1.65-.68 3.08 3.08 0 0 1-.57-2v-.64a3 3 0 0 1 .57-2 2 2 0 0 1 1.64-.69 1.85 1.85 0 0 1 1.42.57 2.32 2.32 0 0 1 .55 1.54h-.9a1.62 1.62 0 0 0-.3-1 1 1 0 0 0-.77-.32 1.1 1.1 0 0 0-.94.41 2.48 2.48 0 0 0-.32 1.37V31a2.49 2.49 0 0 0 .31 1.45 1.08 1.08 0 0 0 .96.47ZM117.54 32.92a1 1 0 0 0 .75-.3 1.23 1.23 0 0 0 .32-.83h.89a2 2 0 0 1-.59 1.39 1.92 1.92 0 0 1-1.37.55 2 2 0 0 1-1.65-.68 3.08 3.08 0 0 1-.57-2v-.64a3 3 0 0 1 .57-2 2 2 0 0 1 1.64-.69 1.83 1.83 0 0 1 1.42.57 2.27 2.27 0 0 1 .55 1.54h-.89a1.69 1.69 0 0 0-.31-1 1 1 0 0 0-.77-.32 1.12 1.12 0 0 0-.94.41 2.48 2.48 0 0 0-.32 1.37V31a2.58 2.58 0 0 0 .31 1.45 1.08 1.08 0 0 0 .96.47ZM123.74 27.81h1v5.81h-1v-4.24l-2.11 4.24h-.95v-5.81h.95v4.24ZM126 30.45a3 3 0 0 1 .62-2 2.17 2.17 0 0 1 3.25 0 3 3 0 0 1 .63 2V31a3 3 0 0 1-.62 2 2 2 0 0 1-1.63.74 2 2 0 0 1-1.62-.72 3 3 0 0 1-.63-1.93Zm1 .54a2.49 2.49 0 0 0 .35 1.41 1.09 1.09 0 0 0 1 .52c.84 0 1.27-.61 1.3-1.82v-.65a2.41 2.41 0 0 0-.36-1.41 1.12 1.12 0 0 0-1.89 0 2.48 2.48 0 0 0-.35 1.4ZM135.8 33.62h-.94v-2.48h-2.1v2.48h-.95v-5.81h.95v2.52h2.1v-2.52h.94ZM140.31 33.62a1.88 1.88 0 0 1-.12-.63 1.53 1.53 0 0 1-1.29.74 1.67 1.67 0 0 1-1.23-.44 1.69 1.69 0 0 1-.45-1.25 1.78 1.78 0 0 1 .6-1.41 2.42 2.42 0 0 1 1.65-.53h.7v-.62a1 1 0 0 0-.23-.74 1.16 1.16 0 0 0-1.4 0 .86.86 0 0 0-.27.65h-1a1.57 1.57 0 0 1 .26-.85 1.91 1.91 0 0 1 .71-.64 2.19 2.19 0 0 1 1-.23 1.88 1.88 0 0 1 1.36.45 1.73 1.73 0 0 1 .48 1.29v2.93a3.43 3.43 0 0 0 .18 1.17v.08Zm-1.31-.76a1.3 1.3 0 0 0 1.13-.67V30.8h-.54a1.88 1.88 0 0 0-1.07.3 1 1 0 0 0-.39.82 1.09 1.09 0 0 0 .2.72.86.86 0 0 0 .67.22ZM146.69 27.81v5.81h-.95v-5h-1.54l-.09 2a5.84 5.84 0 0 1-.44 2.33 1.26 1.26 0 0 1-1.17.69h-.32v-.87h.25a.69.69 0 0 0 .56-.53 8.09 8.09 0 0 0 .22-1.89l.09-2.49ZM148 30.45a3 3 0 0 1 .61-2 2.17 2.17 0 0 1 3.25 0 3 3 0 0 1 .63 2V31a3 3 0 0 1-.61 2 2.17 2.17 0 0 1-3.25 0 2.91 2.91 0 0 1-.63-1.93Zm1 .55a2.41 2.41 0 0 0 .35 1.41 1.08 1.08 0 0 0 .95.52c.83 0 1.27-.61 1.29-1.82v-.65a2.49 2.49 0 0 0-.35-1.41 1.1 1.1 0 0 0-.95-.52 1.06 1.06 0 0 0-.94.52 2.4 2.4 0 0 0-.35 1.4ZM153.8 33.62v-5.81h1.95a2.47 2.47 0 0 1 1.53.41 1.4 1.4 0 0 1 .52 1.18 1.28 1.28 0 0 1-.82 1.22 1.29 1.29 0 0 1 .72.48 1.41 1.41 0 0 1 .3.9 1.53 1.53 0 0 1-.5 1.23 2.17 2.17 0 0 1-1.42.42Zm.95-3.34h1c.74 0 1.11-.28 1.11-.82s-.35-.83-1-.84h-1.06Zm0 .79v1.75h1.31c.64 0 1-.29 1-.88s-.32-.87-1-.87Z"/><path class="main" d="M14.82 19.2a7.75 7.75 0 0 1-3.05 2 11.05 11.05 0 0 1-4 .68 7.28 7.28 0 0 1-5.72-2.27Q.06 17.36 0 13V9.17q0-4.41 1.93-6.79A6.77 6.77 0 0 1 7.54 0a7.25 7.25 0 0 1 5.24 1.71 8.1 8.1 0 0 1 2 5.38h-4.15a4.92 4.92 0 0 0-.84-2.78 2.75 2.75 0 0 0-2.11-.74 2.77 2.77 0 0 0-2.54 1.28 8.1 8.1 0 0 0-.82 4.06v3.86A7.92 7.92 0 0 0 5.19 17a3.17 3.17 0 0 0 2.87 1.33 3.74 3.74 0 0 0 2.06-.51l.38-.27v-3.9h-3V10.4h7.33ZM28.89 12.39h-6.71v5.66h7.94v3.57H17.87V.29h12.22v3.59h-7.91v5h6.71ZM43.61 12.39H36.9v5.66h7.94v3.57H32.59V.29h12.22v3.59H36.9v5h6.71ZM53.32 13.39l-1.7 2.14v6.09h-4.31V.29h4.31v9.3L53 7.29l4-7h5.28l-6.16 9.38 6.21 12h-5.11ZM63.91 21.62V.29h6.59a7.62 7.62 0 0 1 5.08 1.49 5.4 5.4 0 0 1 1.73 4.36 5.28 5.28 0 0 1-.71 2.8 4.25 4.25 0 0 1-2 1.71 3.72 3.72 0 0 1 2.22 1.65 5.68 5.68 0 0 1 .77 3 6.12 6.12 0 0 1-1.67 4.7 7.06 7.06 0 0 1-5 1.58Zm4.31-12.41h2.24c1.69 0 2.53-.87 2.53-2.62a3 3 0 0 0-.58-2.08 2.51 2.51 0 0 0-1.91-.63h-2.28Zm0 3.14v5.7H71a2.16 2.16 0 0 0 1.76-.72 3.1 3.1 0 0 0 .6-2c0-1.91-.69-2.89-2.08-2.94ZM95.76 12.88a10 10 0 0 1-2 6.66 7.91 7.91 0 0 1-11.27 0A9.77 9.77 0 0 1 80.38 13V9.33a10.45 10.45 0 0 1 2-6.86 7.72 7.72 0 0 1 11.27-.05 10.41 10.41 0 0 1 2.08 6.81ZM91.44 9.3a8.85 8.85 0 0 0-.82-4.3 3 3 0 0 0-5.09 0 8.39 8.39 0 0 0-.85 4.12v3.8a7.88 7.88 0 0 0 .84 4.08 2.83 2.83 0 0 0 2.58 1.33A2.77 2.77 0 0 0 90.6 17a7.77 7.77 0 0 0 .84-4ZM108.72 17.26h-5.87l-1.15 4.36h-4.55L103.81.29h3.94l6.71 21.33h-4.6Zm-4.94-3.59h4l-2-7.61ZM122.92 13.83h-2.14v7.79h-4.31V.29h6.87a7 7 0 0 1 5 1.68 6.26 6.26 0 0 1 1.77 4.77q0 4.24-3.09 5.95l3.73 8.73v.2h-4.63Zm-2.14-3.59h2.44a2.28 2.28 0 0 0 1.94-.86 3.7 3.7 0 0 0 .64-2.29c0-2.14-.83-3.21-2.5-3.21h-2.52ZM133.07 21.62V.29h5.64a7.73 7.73 0 0 1 5.95 2.38 9.29 9.29 0 0 1 2.26 6.5v3.46a9.39 9.39 0 0 1-2.21 6.6 8 8 0 0 1-6.12 2.39Zm4.3-17.74v14.17h1.29a3.59 3.59 0 0 0 3-1.14 6.7 6.7 0 0 0 .93-3.92v-3.7a7.54 7.54 0 0 0-.84-4.17 3.35 3.35 0 0 0-2.84-1.24ZM159 16a2.72 2.72 0 0 0-.66-2 7.81 7.81 0 0 0-2.43-1.38 11.27 11.27 0 0 1-4.61-2.85A5.71 5.71 0 0 1 149.91 6a5.41 5.41 0 0 1 1.92-4.33A7.19 7.19 0 0 1 156.68 0a7.27 7.27 0 0 1 3.5.83 5.72 5.72 0 0 1 2.37 2.33 7 7 0 0 1 .83 3.43h-4.3a3.6 3.6 0 0 0-.63-2.28 2.25 2.25 0 0 0-1.84-.78 2.29 2.29 0 0 0-1.76.67 2.49 2.49 0 0 0-.63 1.8 2.19 2.19 0 0 0 .7 1.59 8.24 8.24 0 0 0 2.49 1.47 10.77 10.77 0 0 1 4.59 2.76 6.2 6.2 0 0 1 1.36 4.18 5.52 5.52 0 0 1-1.77 4.35 7 7 0 0 1-4.82 1.56 8.29 8.29 0 0 1-3.77-.85 6.32 6.32 0 0 1-2.66-2.43 7.13 7.13 0 0 1-1-3.73h4.32a4.13 4.13 0 0 0 .71 2.68 3 3 0 0 0 2.35.83c1.55 0 2.28-.79 2.28-2.41Z"/></svg>